<?xml version="1.0" encoding="utf-8"?>
<?xml-stylesheet type="text/xsl" href="rss1.xsl"?>
<rss version="2.0" xmlns:atom="http://www.w3.org/2005/Atom" xmlns:content="http://purl.org/rss/1.0/modules/content/" xmlns:dc="http://purl.org/dc/elements/1.1/" xmlns:media="http://search.yahoo.com/mrss/">
<channel>
 <title>Getty</title>
 <link>http://www.gettyimg.com/</link>
 <atom:link href="http://www.gettyimg.com/" rel="self" type="application/rss+xml" />

 
                <item>
                <title><![CDATA[【HD Live Performances】WEB-DL - Mary J Blige at the BBC (2023) 1080p iPLAYER WEB-DL AAC2.0 H.264-MELODiE [CC]]]></title>
                <link><![CDATA[https://sharemania.us/threads/mary-j-blige-at-the-bbc-2023-1080p-iplayer-web-dl-aac2-0-h-264-melodie-cc.230966/]]></link>
                <description><![CDATA[<article>
<blockquote class="messageText SelectQuoteContainer ugc baseHtml">
<div style="text-align: center"><span style="font-size: 18px"><b><span style="color: #ff0000">Mary J Blige at the BBC (2023) 1080p iPLAYER WEB-DL AAC2.0 H.264-MELODiE [CC]</span></b></span>​</div><br>
<div style="text-align: center"><span style="font-size: 12px">A celebration of R&amp;B superstar Mary J Blige that spans the highlights of her groundbreaking career and features the very best of her appearances on a selection of BBC shows. <br>
<br>
From the early songs of the mid-1990s right up to her acclaimed 2015 performance on Glastonbury’s Pyramid Stage, this collection demonstrates why Mary has been labelled as ‘the queen of hip-hop soul’, featuring such hits as Just Fine, Everything and No More Drama. <br>
<br>
The programme also includes her collaborations with U2, George Michael and the man who once said Mary possesses 'one of the best voices you’re ever going to hear', Sir Elton John.</span>​</div><br>
<div style="text-align: center"><img src="https://i.postimg.cc/VN2Svj5r/p0gkjnb9.jpg" class="bbCodeImage LbImage" alt="[​IMG]" data-url="https://i.postimg.cc/VN2Svj5r/p0gkjnb9.jpg" style=""><br>
<img src="https://i.postimg.cc/g2xpt1kR/Mary-J-Blige-at-the-BBC-2023-1080p-i-PLAYER-WEB-DL-AAC2-0-H-264-MELODi-E-CC-mkv.jpg" class="bbCodeImage LbImage" alt="[​IMG]" data-url="https://i.postimg.cc/g2xpt1kR/Mary-J-Blige-at-the-BBC-2023-1080p-i-PLAYER-WEB-DL-AAC2-0-H-264-MELODi-E-CC-mkv.jpg" style=""> <br>
<br>
<div style="text-align: center">​</div>
<div class="ToggleTriggerAnchor bbCodeSpoilerContainer">
<button type="button" class="button bbCodeSpoilerButton ToggleTrigger Tooltip JsOnly" data-target="> .SpoilerTarget"><span>Spoiler: <span class="SpoilerTitle">MediaInfo</span></span></button>
<div class="SpoilerTarget bbCodeSpoilerText">Format : Matroska<br>
Format version : Version 4<br>
File size : 4.35 GiB<br>
Duration : 58 min 58 s<br>
Overall bit rate mode : Variable<br>
Overall bit rate : 10.6 Mb/s<br>
Encoded date : UTC 2023-10-23 22:17:00<br>
Writing application : mkvmerge v69.0.0 ('Day And Age') 64-bit<br>
Writing library : libebml v1.4.2 + libmatroska v1.6.4<br>
Cover : Yes<br>
Attachments : cover.jpg<br>
<br>
Video<br>
ID : 1<br>
Format : AVC<br>
Format/Info : Advanced Video Codec<br>
Format profile : High@L4.2<br>
Format settings : CABAC / 4 Ref Frames<br>
Format settings, CABAC : Yes<br>
Format settings, Reference : 4 frames<br>
Codec ID : V_MPEG4/ISO/AVC<br>
Duration : 58 min 58 s<br>
Bit rate mode : Variable<br>
Bit rate : 10.4 Mb/s<br>
Maximum bit rate : 12.0 Mb/s<br>
Width : 1 920 pixels<br>
Height : 1 080 pixels<br>
Display aspect ratio : 16:9<br>
Frame rate mode : Constant<br>
Frame rate : 50.000 FPS<br>
Color space : YUV<br>
Chroma subsampling : 4:2:0<br>
Bit depth : 8 bits<br>
Scan type : Progressive<br>
Bits/(Pixel*Frame) : 0.101<br>
Stream size : 4.30 GiB (99%)<br>
Language : English<br>
Default : Yes<br>
Forced : No<br>
Color range : Limited<br>
Color primaries : BT.709<br>
Transfer characteristics : BT.709<br>
Matrix coefficients : BT.709<br>
<br>
Audio<br>
ID : 2<br>
Format : AAC LC<br>
Format/Info : Advanced Audio Codec Low Complexity<br>
Codec ID : A_AAC-2<br>
Duration : 58 min 58 s<br>
Bit rate : 128 kb/s<br>
Channel(s) : 2 channels<br>
Channel layout : L R<br>
Sampling rate : 48.0 kHz<br>
Frame rate : 46.875 FPS (1024 SPF)<br>
Compression mode : Lossy<br>
Stream size : 54.0 MiB (1%)<br>
Language : English<br>
Default : Yes<br>
Forced : No<br>
<br>
Text<br>
ID : 3<br>
Format : UTF-8<br>
Codec ID : S_TEXT/UTF8<br>
Codec ID/Info : UTF-8 Plain Text<br>
Duration : 58 min 55 s<br>
Bit rate : 178 b/s<br>
Frame rate : 0.309 FPS<br>
Count of elements : 1091<br>
Stream size : 77.1 KiB (0%)<br>
Language : English<br>
Default : Yes<br>
Forced : No</div>
</div><div style="text-align: center">​</div>
<div class="bbCodeBlock bbCodeVfcHH HiddenContent">
<div class="attribution type">Hidden Content:</div>
<blockquote>You must either reply or click 'Like' to see the hidden information contained here.</blockquote>
</div></div>
<div class="messageTextEndMarker">&nbsp;</div>
</blockquote>
</article>]]></description>
                <author><![CDATA[melodie]]></author>
                </item>

                </channel></rss>